<svg xmlns="http://www.w3.org/2000/svg" viewBox="0 0 250.6087074340111 247.2" height="247.2" width="250.6087074340111"><g><svg viewBox="0 0 395.52 390.1402509158422" height="247.2" width="250.6087074340111"><g transform="matrix(1,0,0,1,0,328.8588237602426)"><svg viewBox="0 0 395.52 61.28142715559959" height="61.28142715559959" width="395.52"><g id="textblocktransform"><svg viewBox="0 0 395.52 61.28142715559959" height="61.28142715559959" width="395.52" id="textblock"><g><svg viewBox="0 0 395.52 61.28142715559959" height="61.28142715559959" width="395.52"><g transform="matrix(1,0,0,1,0,0)"><svg width="395.52" viewBox="1.8 -35 302.68 46.9" height="61.28142715559959" data-palette-color="#ffffff"><path d="M35.7-23.3L31.1-23.3 31.1-30.15 13.3-30.15 13.3-19.2 21.2-19.2 21.2-23.85 25.2-23.85 25.2-10.75 21.2-10.75 21.2-15.4 13.3-15.4 13.3-4.15 31.1-4.15 31.1-11 35.7-11 35.7 0 1.8 0 1.8-4.15 8.2-4.15 8.2-30.15 1.8-30.15 1.8-34.3 35.7-34.3 35.7-23.3ZM67.15-4.15L68.15-0.6Q66.5 0.4 64.3 0.4L64.3 0.4Q62.45 0.4 61.17-0.68 59.9-1.75 59.4-3.75L59.4-3.75Q54.4 0.7 49.5 0.7L49.5 0.7Q46.05 0.7 43.65-1.25 41.25-3.2 41.25-6.7L41.25-6.7Q41.25-9.1 42.6-10.88 43.95-12.65 46.22-13.58 48.5-14.5 51.15-14.5L51.15-14.5Q53.4-14.5 55.3-14.08 57.2-13.65 59.2-12.85L59.2-12.85 59.2-15.05Q59.2-17.6 57.5-18.8 55.8-20 53.05-20L53.05-20Q49.15-20 43.65-17.85L43.65-17.85 42.65-21.65Q48.55-24.15 53.65-24.15L53.65-24.15Q58.5-24.15 61.17-21.78 63.85-19.4 63.85-14.85L63.85-14.85 63.85-6.2Q63.85-3.75 65.6-3.75L65.6-3.75Q66.35-3.75 67.15-4.15L67.15-4.15ZM46.1-6.95Q46.1-5.25 47.45-4.33 48.8-3.4 50.75-3.4L50.75-3.4Q52.45-3.4 54.65-4.3 56.85-5.2 59.2-6.95L59.2-6.95 59.2-9.6Q55.8-10.8 52-10.9L52-10.9Q49.55-10.9 47.82-9.88 46.1-8.85 46.1-6.95L46.1-6.95ZM82.9-13.9Q87.5-12.65 89.97-10.78 92.45-8.9 92.45-5.75L92.45-5.75Q92.45-2.85 90-1.07 87.55 0.7 83.95 0.7L83.95 0.7Q81.45 0.7 79.02-0.18 76.6-1.05 74.7-2.6L74.7-2.6 74.7 0.05 70.9 0.05 70.9-7.6 73.05-7.8Q74.95-5.65 77.82-4.13 80.7-2.6 83.45-2.6L83.45-2.6Q85.3-2.6 86.35-3.3 87.4-4 87.4-5.3L87.4-5.3Q87.4-6.8 85.75-7.78 84.1-8.75 80.35-9.75L80.35-9.75Q75.85-10.95 73.42-12.78 71-14.6 71-17.55L71-17.55Q71-19.4 72.02-20.93 73.05-22.45 74.92-23.33 76.8-24.2 79.25-24.2L79.25-24.2Q81.65-24.2 83.82-23.4 86-22.6 87.6-21.15L87.6-21.15 87.6-23.55 91.35-23.55 91.35-15.95 89.15-15.7Q87.75-18.05 85.32-19.48 82.9-20.9 80.5-20.9L80.5-20.9Q78.55-20.9 77.3-20.13 76.05-19.35 76.05-18.1L76.05-18.1Q76.05-16.75 77.7-15.83 79.35-14.9 82.9-13.9L82.9-13.9ZM126.79-23.55L126.79-19.6 123.09-19.6 113.19 2.6Q111.09 7.25 108.47 9.58 105.84 11.9 102.34 11.9L102.34 11.9Q100.39 11.9 98.82 11.28 97.24 10.65 95.39 9.45L95.39 9.45 97.39 5.7Q99.94 7.55 102.34 7.55L102.34 7.55Q104.49 7.55 106.19 6.18 107.89 4.8 109.19 1.8L109.19 1.8 109.54 1 99.44-19.6 95.54-19.6 95.54-23.55 108.74-23.55 108.74-19.95 104.69-19.95 111.79-4.15 118.74-19.95 114.89-19.95 114.89-23.55 126.79-23.55ZM174.14-10.15L177.49-7.35Q175.04-3.75 171.26-1.55 167.49 0.65 162.34 0.65L162.34 0.65Q157.44 0.65 153.36-1.63 149.29-3.9 146.94-7.95 144.59-12 144.59-17.1L144.59-17.1Q144.59-22.35 146.89-26.43 149.19-30.5 153.04-32.75 156.89-35 161.34-35L161.34-35Q164.94-35 167.71-33.7 170.49-32.4 172.39-30.05L172.39-30.05 172.44-34.3 177.09-34.3 177.09-23.15 173.79-22.85Q170.19-30.85 162.09-30.85L162.09-30.85Q158.84-30.85 156.06-29.18 153.29-27.5 151.61-24.38 149.94-21.25 149.94-17.15L149.94-17.15Q149.94-13.25 151.59-10.18 153.24-7.1 156.06-5.35 158.89-3.6 162.34-3.6L162.34-3.6Q166.39-3.6 169.21-5.35 172.04-7.1 174.14-10.15L174.14-10.15ZM210.39-3.95L215.09-3.95 215.09 0 201.19 0 201.19-3.95 205.54-3.95 205.54-13.7Q205.54-16.6 204.16-18.2 202.79-19.8 200.19-19.8L200.19-19.8Q196.14-19.8 191.19-14.3L191.19-14.3 191.19-3.95 195.49-3.95 195.49 0 180.99 0 180.99-3.95 186.29-3.95 186.29-30.35 180.99-30.35 180.99-34.3 191.19-34.3 191.19-18.15Q193.94-21.15 196.51-22.65 199.09-24.15 202.14-24.15L202.14-24.15Q206.19-24.15 208.29-21.58 210.39-19 210.39-13.85L210.39-13.85 210.39-3.95ZM239.43-6.7L241.53-3.5Q236.73 0.7 230.58 0.7L230.58 0.7Q227.23 0.7 224.23-0.7 221.23-2.1 219.38-4.8 217.53-7.5 217.53-11.2L217.53-11.2Q217.53-15.15 219.43-18.1 221.33-21.05 224.38-22.63 227.43-24.2 230.78-24.2L230.78-24.2Q233.73-24.2 236.06-23.25 238.38-22.3 239.71-20.6 241.03-18.9 241.03-16.7L241.03-16.7Q241.03-13.4 238.21-11.58 235.38-9.75 231.43-9.75L231.43-9.75Q228.88-9.75 226.68-10.28 224.48-10.8 222.23-11.8L222.23-11.8 222.23-11.35Q222.23-9 223.36-7.2 224.48-5.4 226.38-4.45 228.28-3.5 230.53-3.5L230.53-3.5Q235.63-3.5 239.43-6.7L239.43-6.7ZM231.13-20.3Q228.43-20.3 226.11-18.75 223.78-17.2 222.78-14.55L222.78-14.55Q226.58-13.2 230.38-13.2L230.38-13.2Q232.88-13.2 234.51-14.13 236.13-15.05 236.13-16.7L236.13-16.7Q236.13-18.3 234.73-19.3 233.33-20.3 231.13-20.3L231.13-20.3ZM266.73-7L268.93-3.8Q264.28 0.7 258.08 0.7L258.08 0.7Q254.78 0.7 251.88-0.85 248.98-2.4 247.23-5.23 245.48-8.05 245.48-11.7L245.48-11.7Q245.48-15.15 247.08-18.03 248.68-20.9 251.38-22.55 254.08-24.2 257.23-24.2L257.23-24.2Q262.23-24.2 265.03-20.65L265.03-20.65 265.03-23.55 268.58-23.55 268.58-15.3 266.48-15.15Q264.03-20.15 258.68-20.15L258.68-20.15Q256.38-20.15 254.53-19.07 252.68-18 251.63-16.1 250.58-14.2 250.58-11.75L250.58-11.75Q250.58-9.35 251.71-7.45 252.83-5.55 254.66-4.53 256.48-3.5 258.58-3.5L258.58-3.5Q261.03-3.45 262.91-4.35 264.78-5.25 266.73-7L266.73-7ZM301.93-5.4L304.48-2.5Q303.23-1 301.68-0.15 300.13 0.7 297.98 0.7L297.98 0.7Q294.73 0.7 292.38-1.75 290.03-4.2 289.18-8.65L289.18-8.65Q287.08-8.7 285.23-9.22 283.38-9.75 281.33-10.7L281.33-10.7 281.33-3.95 286.28-3.95 286.28 0 271.28 0 271.28-3.95 276.53-3.95 276.53-30.35 271.28-30.35 271.28-34.3 281.33-34.3 281.33-19.3Q286.33-24 291.68-24L291.68-24Q295.28-24 297.7-22.1 300.13-20.2 300.13-16.7L300.13-16.7Q300.13-13.9 298.23-11.9 296.33-9.9 293.38-9.1L293.38-9.1Q294.08-6.3 295.33-4.98 296.58-3.65 298.18-3.65L298.18-3.65Q300.38-3.65 301.93-5.4L301.93-5.4ZM281.33-13.9Q285.18-12.25 288.88-12.25L288.88-12.25Q291.48-12.35 293.28-13.43 295.08-14.5 295.08-16.45L295.08-16.45Q295.08-18.15 293.85-19.05 292.63-19.95 290.48-19.95L290.48-19.95Q288.48-19.95 286.1-18.9 283.73-17.85 281.33-15.85L281.33-15.85 281.33-13.9Z" opacity="1" transform="matrix(1,0,0,1,0,0)" fill="#ffffff" class="wordmark-text-0" data-fill-palette-color="primary" id="text-0"/></svg></g></svg></g></svg></g></svg></g><g transform="matrix(1,0,0,1,47.79766231706401,0)"><svg viewBox="0 0 299.92467536587196 299.92467536587196" height="299.92467536587196" width="299.92467536587196"><g><svg/></g><g id="icon-0"><svg viewBox="0 0 299.92467536587196 299.92467536587196" height="299.92467536587196" width="299.92467536587196"><g><path d="M0 149.962c0-82.822 67.14-149.962 149.962-149.962 82.822 0 149.962 67.14 149.963 149.962 0 82.822-67.14 149.962-149.963 149.963-82.822 0-149.962-67.14-149.962-149.963zM149.962 294.398c79.77 0 144.436-64.666 144.436-144.436 0-79.77-64.666-144.436-144.436-144.436-79.77 0-144.436 64.666-144.436 144.436 0 79.77 64.666 144.436 144.436 144.436z" data-fill-palette-color="accent" fill="#ffffff" stroke="transparent"/></g><g transform="matrix(1,0,0,1,59.061729806673796,71.29273012090549)"><svg viewBox="0 0 181.80121575252437 157.33921512406098" height="157.33921512406098" width="181.80121575252437"><g><svg xmlns="http://www.w3.org/2000/svg" xmlns:xlink="http://www.w3.org/1999/xlink" version="1.1" x="0" y="0" viewBox="0 3 50.701 43.879" enable-background="new 0 0 50 50" xml:space="preserve" id="dxe-0" width="181.80121575252437" height="157.33921512406098" class="icon-dxe-0" data-fill-palette-color="accent"><g fill="#ffffff" data-fill-palette-color="accent"><g fill="#ffffff" data-fill-palette-color="accent"><g fill="#ffffff" data-fill-palette-color="accent"><polygon fill="#ffffff" points="30,46.879 0,46.865 0,11 49,11 49,29 45,29 45,14.404 4,14.44 4,42.884 30,42.879    " data-fill-palette-color="accent"/></g><g fill="#ffffff" data-fill-palette-color="accent"><path fill="#ffffff" d="M0 3V15H49V3zM8 11H4V7H8zM14 11H10V7H14zM20 11H16V7H20z" data-fill-palette-color="accent"/></g></g><polygon fill="#ffffff" points="36.747,46.501 31.483,39.799 34.629,37.328 37.42,40.882 48.228,32.378 50.701,35.521  " data-fill-palette-color="accent"/></g></svg></g></svg></g></svg></g></svg></g><g/></svg></g><defs/></svg>