<svg xmlns="http://www.w3.org/2000/svg" class="qr-svg qrcode" viewBox="0 0 45 45" preserveAspectRatio="xMidYMid">
<defs>
	<style><![CDATA[
		.dark{fill: #000000;}
		.light{fill: #eaeaea;}
		.logo{fill: #6c9bff;}
	]]></style>
</defs>
<path class="qr-darkmodule dark qrcode" d="M12.05 33.5 a0.45 0.45 0 1 0 0.9 0 a0.45 0.45 0 1 0 -0.9 0Z"/>
<path class="qr-data-dark dark qrcode" d="M14.05 4.5 a0.45 0.45 0 1 0 0.9 0 a0.45 0.45 0 1 0 -0.9 0Z M15.05 4.5 a0.45 0.45 0 1 0 0.9 0 a0.45 0.45 0 1 0 -0.9 0Z M16.05 4.5 a0.45 0.45 0 1 0 0.9 0 a0.45 0.45 0 1 0 -0.9 0Z M18.05 4.5 a0.45 0.45 0 1 0 0.9 0 a0.45 0.45 0 1 0 -0.9 0Z M19.05 4.5 a0.45 0.45 0 1 0 0.9 0 a0.45 0.45 0 1 0 -0.9 0Z M23.05 4.5 a0.45 0.45 0 1 0 0.9 0 a0.45 0.45 0 1 0 -0.9 0Z M25.05 4.5 a0.45 0.45 0 1 0 0.9 0 a0.45 0.45 0 1 0 -0.9 0Z M28.05 4.5 a0.45 0.45 0 1 0 0.9 0 a0.45 0.45 0 1 0 -0.9 0Z M30.05 4.5 a0.45 0.45 0 1 0 0.9 0 a0.45 0.45 0 1 0 -0.9 0Z M31.05 4.5 a0.45 0.45 0 1 0 0.9 0 a0.45 0.45 0 1 0 -0.9 0Z M32.05 4.5 a0.45 0.45 0 1 0 0.9 0 a0.45 0.45 0 1 0 -0.9 0Z M17.05 5.5 a0.45 0.45 0 1 0 0.9 0 a0.45 0.45 0 1 0 -0.9 0Z M19.05 5.5 a0.45 0.45 0 1 0 0.9 0 a0.45 0.45 0 1 0 -0.9 0Z M20.05 5.5 a0.45 0.45 0 1 0 0.9 0 a0.45 0.45 0 1 0 -0.9 0Z M21.05 5.5 a0.45 0.45 0 1 0 0.9 0 a0.45 0.45 0 1 0 -0.9 0Z M23.05 5.5 a0.45 0.45 0 1 0 0.9 0 a0.45 0.45 0 1 0 -0.9 0Z M28.05 5.5 a0.45 0.45 0 1 0 0.9 0 a0.45 0.45 0 1 0 -0.9 0Z M29.05 5.5 a0.45 0.45 0 1 0 0.9 0 a0.45 0.45 0 1 0 -0.9 0Z M30.05 5.5 a0.45 0.45 0 1 0 0.9 0 a0.45 0.45 0 1 0 -0.9 0Z M32.05 5.5 a0.45 0.45 0 1 0 0.9 0 a0.45 0.45 0 1 0 -0.9 0Z M14.05 6.5 a0.45 0.45 0 1 0 0.9 0 a0.45 0.45 0 1 0 -0.9 0Z M16.05 6.5 a0.45 0.45 0 1 0 0.9 0 a0.45 0.45 0 1 0 -0.9 0Z M17.05 6.5 a0.45 0.45 0 1 0 0.9 0 a0.45 0.45 0 1 0 -0.9 0Z M19.05 6.5 a0.45 0.45 0 1 0 0.9 0 a0.45 0.45 0 1 0 -0.9 0Z M20.05 6.5 a0.45 0.45 0 1 0 0.9 0 a0.45 0.45 0 1 0 -0.9 0Z M21.05 6.5 a0.45 0.45 0 1 0 0.9 0 a0.45 0.45 0 1 0 -0.9 0Z M23.05 6.5 a0.45 0.45 0 1 0 0.9 0 a0.45 0.45 0 1 0 -0.9 0Z M25.05 6.5 a0.45 0.45 0 1 0 0.9 0 a0.45 0.45 0 1 0 -0.9 0Z M26.05 6.5 a0.45 0.45 0 1 0 0.9 0 a0.45 0.45 0 1 0 -0.9 0Z M27.05 6.5 a0.45 0.45 0 1 0 0.9 0 a0.45 0.45 0 1 0 -0.9 0Z M28.05 6.5 a0.45 0.45 0 1 0 0.9 0 a0.45 0.45 0 1 0 -0.9 0Z M30.05 6.5 a0.45 0.45 0 1 0 0.9 0 a0.45 0.45 0 1 0 -0.9 0Z M13.05 7.5 a0.45 0.45 0 1 0 0.9 0 a0.45 0.45 0 1 0 -0.9 0Z M16.05 7.5 a0.45 0.45 0 1 0 0.9 0 a0.45 0.45 0 1 0 -0.9 0Z M18.05 7.5 a0.45 0.45 0 1 0 0.9 0 a0.45 0.45 0 1 0 -0.9 0Z M19.05 7.5 a0.45 0.45 0 1 0 0.9 0 a0.45 0.45 0 1 0 -0.9 0Z M21.05 7.5 a0.45 0.45 0 1 0 0.9 0 a0.45 0.45 0 1 0 -0.9 0Z M22.05 7.5 a0.45 0.45 0 1 0 0.9 0 a0.45 0.45 0 1 0 -0.9 0Z M23.05 7.5 a0.45 0.45 0 1 0 0.9 0 a0.45 0.45 0 1 0 -0.9 0Z M24.05 7.5 a0.45 0.45 0 1 0 0.9 0 a0.45 0.45 0 1 0 -0.9 0Z M25.05 7.5 a0.45 0.45 0 1 0 0.9 0 a0.45 0.45 0 1 0 -0.9 0Z M29.05 7.5 a0.45 0.45 0 1 0 0.9 0 a0.45 0.45 0 1 0 -0.9 0Z M30.05 7.5 a0.45 0.45 0 1 0 0.9 0 a0.45 0.45 0 1 0 -0.9 0Z M32.05 7.5 a0.45 0.45 0 1 0 0.9 0 a0.45 0.45 0 1 0 -0.9 0Z M14.05 8.5 a0.45 0.45 0 1 0 0.9 0 a0.45 0.45 0 1 0 -0.9 0Z M15.05 8.5 a0.45 0.45 0 1 0 0.9 0 a0.45 0.45 0 1 0 -0.9 0Z M16.05 8.5 a0.45 0.45 0 1 0 0.9 0 a0.45 0.45 0 1 0 -0.9 0Z M18.05 8.5 a0.45 0.45 0 1 0 0.9 0 a0.45 0.45 0 1 0 -0.9 0Z M19.05 8.5 a0.45 0.45 0 1 0 0.9 0 a0.45 0.45 0 1 0 -0.9 0Z M24.05 8.5 a0.45 0.45 0 1 0 0.9 0 a0.45 0.45 0 1 0 -0.9 0Z M25.05 8.5 a0.45 0.45 0 1 0 0.9 0 a0.45 0.45 0 1 0 -0.9 0Z M26.05 8.5 a0.45 0.45 0 1 0 0.9 0 a0.45 0.45 0 1 0 -0.9 0Z M30.05 8.5 a0.45 0.45 0 1 0 0.9 0 a0.45 0.45 0 1 0 -0.9 0Z M31.05 8.5 a0.45 0.45 0 1 0 0.9 0 a0.45 0.45 0 1 0 -0.9 0Z M15.05 9.5 a0.45 0.45 0 1 0 0.9 0 a0.45 0.45 0 1 0 -0.9 0Z M16.05 9.5 a0.45 0.45 0 1 0 0.9 0 a0.45 0.45 0 1 0 -0.9 0Z M18.05 9.5 a0.45 0.45 0 1 0 0.9 0 a0.45 0.45 0 1 0 -0.9 0Z M19.05 9.5 a0.45 0.45 0 1 0 0.9 0 a0.45 0.45 0 1 0 -0.9 0Z M20.05 9.5 a0.45 0.45 0 1 0 0.9 0 a0.45 0.45 0 1 0 -0.9 0Z M26.05 9.5 a0.45 0.45 0 1 0 0.9 0 a0.45 0.45 0 1 0 -0.9 0Z M27.05 9.5 a0.45 0.45 0 1 0 0.9 0 a0.45 0.45 0 1 0 -0.9 0Z M32.05 9.5 a0.45 0.45 0 1 0 0.9 0 a0.45 0.45 0 1 0 -0.9 0Z M13.05 11.5 a0.45 0.45 0 1 0 0.9 0 a0.45 0.45 0 1 0 -0.9 0Z M14.05 11.5 a0.45 0.45 0 1 0 0.9 0 a0.45 0.45 0 1 0 -0.9 0Z M15.05 11.5 a0.45 0.45 0 1 0 0.9 0 a0.45 0.45 0 1 0 -0.9 0Z M17.05 11.5 a0.45 0.45 0 1 0 0.9 0 a0.45 0.45 0 1 0 -0.9 0Z M18.05 11.5 a0.45 0.45 0 1 0 0.9 0 a0.45 0.45 0 1 0 -0.9 0Z M20.05 11.5 a0.45 0.45 0 1 0 0.9 0 a0.45 0.45 0 1 0 -0.9 0Z M24.05 11.5 a0.45 0.45 0 1 0 0.9 0 a0.45 0.45 0 1 0 -0.9 0Z M26.05 11.5 a0.45 0.45 0 1 0 0.9 0 a0.45 0.45 0 1 0 -0.9 0Z M28.05 11.5 a0.45 0.45 0 1 0 0.9 0 a0.45 0.45 0 1 0 -0.9 0Z M29.05 11.5 a0.45 0.45 0 1 0 0.9 0 a0.45 0.45 0 1 0 -0.9 0Z M14.05 12.5 a0.45 0.45 0 1 0 0.9 0 a0.45 0.45 0 1 0 -0.9 0Z M15.05 12.5 a0.45 0.45 0 1 0 0.9 0 a0.45 0.45 0 1 0 -0.9 0Z M17.05 12.5 a0.45 0.45 0 1 0 0.9 0 a0.45 0.45 0 1 0 -0.9 0Z M20.05 12.5 a0.45 0.45 0 1 0 0.9 0 a0.45 0.45 0 1 0 -0.9 0Z M21.05 12.5 a0.45 0.45 0 1 0 0.9 0 a0.45 0.45 0 1 0 -0.9 0Z M23.05 12.5 a0.45 0.45 0 1 0 0.9 0 a0.45 0.45 0 1 0 -0.9 0Z M26.05 12.5 a0.45 0.45 0 1 0 0.9 0 a0.45 0.45 0 1 0 -0.9 0Z M29.05 12.5 a0.45 0.45 0 1 0 0.9 0 a0.45 0.45 0 1 0 -0.9 0Z M31.05 12.5 a0.45 0.45 0 1 0 0.9 0 a0.45 0.45 0 1 0 -0.9 0Z M32.05 12.5 a0.45 0.45 0 1 0 0.9 0 a0.45 0.45 0 1 0 -0.9 0Z M4.05 13.5 a0.45 0.45 0 1 0 0.9 0 a0.45 0.45 0 1 0 -0.9 0Z M7.05 13.5 a0.45 0.45 0 1 0 0.9 0 a0.45 0.45 0 1 0 -0.9 0Z M11.05 13.5 a0.45 0.45 0 1 0 0.9 0 a0.45 0.45 0 1 0 -0.9 0Z M15.05 13.5 a0.45 0.45 0 1 0 0.9 0 a0.45 0.45 0 1 0 -0.9 0Z M18.05 13.5 a0.45 0.45 0 1 0 0.9 0 a0.45 0.45 0 1 0 -0.9 0Z M19.05 13.5 a0.45 0.45 0 1 0 0.9 0 a0.45 0.45 0 1 0 -0.9 0Z M22.05 13.5 a0.45 0.45 0 1 0 0.9 0 a0.45 0.45 0 1 0 -0.9 0Z M26.05 13.5 a0.45 0.45 0 1 0 0.9 0 a0.45 0.45 0 1 0 -0.9 0Z M27.05 13.5 a0.45 0.45 0 1 0 0.9 0 a0.45 0.45 0 1 0 -0.9 0Z M28.05 13.5 a0.45 0.45 0 1 0 0.9 0 a0.45 0.45 0 1 0 -0.9 0Z M30.05 13.5 a0.45 0.45 0 1 0 0.9 0 a0.45 0.45 0 1 0 -0.9 0Z M34.05 13.5 a0.45 0.45 0 1 0 0.9 0 a0.45 0.45 0 1 0 -0.9 0Z M38.05 13.5 a0.45 0.45 0 1 0 0.9 0 a0.45 0.45 0 1 0 -0.9 0Z M5.05 14.5 a0.45 0.45 0 1 0 0.9 0 a0.45 0.45 0 1 0 -0.9 0Z M6.05 14.5 a0.45 0.45 0 1 0 0.9 0 a0.45 0.45 0 1 0 -0.9 0Z M8.05 14.5 a0.45 0.45 0 1 0 0.9 0 a0.45 0.45 0 1 0 -0.9 0Z M9.05 14.5 a0.45 0.45 0 1 0 0.9 0 a0.45 0.45 0 1 0 -0.9 0Z M13.05 14.5 a0.45 0.45 0 1 0 0.9 0 a0.45 0.45 0 1 0 -0.9 0Z
M16.05 14.5 a0.45 0.45 0 1 0 0.9 0 a0.45 0.45 0 1 0 -0.9 0Z M17.05 14.5 a0.45 0.45 0 1 0 0.9 0 a0.45 0.45 0 1 0 -0.9 0Z M18.05 14.5 a0.45 0.45 0 1 0 0.9 0 a0.45 0.45 0 1 0 -0.9 0Z M20.05 14.5 a0.45 0.45 0 1 0 0.9 0 a0.45 0.45 0 1 0 -0.9 0Z M23.05 14.5 a0.45 0.45 0 1 0 0.9 0 a0.45 0.45 0 1 0 -0.9 0Z M24.05 14.5 a0.45 0.45 0 1 0 0.9 0 a0.45 0.45 0 1 0 -0.9 0Z M25.05 14.5 a0.45 0.45 0 1 0 0.9 0 a0.45 0.45 0 1 0 -0.9 0Z M26.05 14.5 a0.45 0.45 0 1 0 0.9 0 a0.45 0.45 0 1 0 -0.9 0Z M29.05 14.5 a0.45 0.45 0 1 0 0.9 0 a0.45 0.45 0 1 0 -0.9 0Z M30.05 14.5 a0.45 0.45 0 1 0 0.9 0 a0.45 0.45 0 1 0 -0.9 0Z M31.05 14.5 a0.45 0.45 0 1 0 0.9 0 a0.45 0.45 0 1 0 -0.9 0Z M33.05 14.5 a0.45 0.45 0 1 0 0.9 0 a0.45 0.45 0 1 0 -0.9 0Z M36.05 14.5 a0.45 0.45 0 1 0 0.9 0 a0.45 0.45 0 1 0 -0.9 0Z M5.05 15.5 a0.45 0.45 0 1 0 0.9 0 a0.45 0.45 0 1 0 -0.9 0Z M6.05 15.5 a0.45 0.45 0 1 0 0.9 0 a0.45 0.45 0 1 0 -0.9 0Z M9.05 15.5 a0.45 0.45 0 1 0 0.9 0 a0.45 0.45 0 1 0 -0.9 0Z M11.05 15.5 a0.45 0.45 0 1 0 0.9 0 a0.45 0.45 0 1 0 -0.9 0Z M14.05 15.5 a0.45 0.45 0 1 0 0.9 0 a0.45 0.45 0 1 0 -0.9 0Z M16.05 15.5 a0.45 0.45 0 1 0 0.9 0 a0.45 0.45 0 1 0 -0.9 0Z M17.05 15.5 a0.45 0.45 0 1 0 0.9 0 a0.45 0.45 0 1 0 -0.9 0Z M19.05 15.5 a0.45 0.45 0 1 0 0.9 0 a0.45 0.45 0 1 0 -0.9 0Z M22.05 15.5 a0.45 0.45 0 1 0 0.9 0 a0.45 0.45 0 1 0 -0.9 0Z M24.05 15.5 a0.45 0.45 0 1 0 0.9 0 a0.45 0.45 0 1 0 -0.9 0Z M28.05 15.5 a0.45 0.45 0 1 0 0.9 0 a0.45 0.45 0 1 0 -0.9 0Z M30.05 15.5 a0.45 0.45 0 1 0 0.9 0 a0.45 0.45 0 1 0 -0.9 0Z M31.05 15.5 a0.45 0.45 0 1 0 0.9 0 a0.45 0.45 0 1 0 -0.9 0Z M32.05 15.5 a0.45 0.45 0 1 0 0.9 0 a0.45 0.45 0 1 0 -0.9 0Z M33.05 15.5 a0.45 0.45 0 1 0 0.9 0 a0.45 0.45 0 1 0 -0.9 0Z M35.05 15.5 a0.45 0.45 0 1 0 0.9 0 a0.45 0.45 0 1 0 -0.9 0Z M36.05 15.5 a0.45 0.45 0 1 0 0.9 0 a0.45 0.45 0 1 0 -0.9 0Z M38.05 15.5 a0.45 0.45 0 1 0 0.9 0 a0.45 0.45 0 1 0 -0.9 0Z M40.05 15.5 a0.45 0.45 0 1 0 0.9 0 a0.45 0.45 0 1 0 -0.9 0Z M4.05 16.5 a0.45 0.45 0 1 0 0.9 0 a0.45 0.45 0 1 0 -0.9 0Z M7.05 16.5 a0.45 0.45 0 1 0 0.9 0 a0.45 0.45 0 1 0 -0.9 0Z M8.05 16.5 a0.45 0.45 0 1 0 0.9 0 a0.45 0.45 0 1 0 -0.9 0Z M9.05 16.5 a0.45 0.45 0 1 0 0.9 0 a0.45 0.45 0 1 0 -0.9 0Z M12.05 16.5 a0.45 0.45 0 1 0 0.9 0 a0.45 0.45 0 1 0 -0.9 0Z M14.05 16.5 a0.45 0.45 0 1 0 0.9 0 a0.45 0.45 0 1 0 -0.9 0Z M16.05 16.5 a0.45 0.45 0 1 0 0.9 0 a0.45 0.45 0 1 0 -0.9 0Z M19.05 16.5 a0.45 0.45 0 1 0 0.9 0 a0.45 0.45 0 1 0 -0.9 0Z M20.05 16.5 a0.45 0.45 0 1 0 0.9 0 a0.45 0.45 0 1 0 -0.9 0Z M21.05 16.5 a0.45 0.45 0 1 0 0.9 0 a0.45 0.45 0 1 0 -0.9 0Z M25.05 16.5 a0.45 0.45 0 1 0 0.9 0 a0.45 0.45 0 1 0 -0.9 0Z M32.05 16.5 a0.45 0.45 0 1 0 0.9 0 a0.45 0.45 0 1 0 -0.9 0Z M33.05 16.5 a0.45 0.45 0 1 0 0.9 0 a0.45 0.45 0 1 0 -0.9 0Z M34.05 16.5 a0.45 0.45 0 1 0 0.9 0 a0.45 0.45 0 1 0 -0.9 0Z M35.05 16.5 a0.45 0.45 0 1 0 0.9 0 a0.45 0.45 0 1 0 -0.9 0Z M37.05 16.5 a0.45 0.45 0 1 0 0.9 0 a0.45 0.45 0 1 0 -0.9 0Z M38.05 16.5 a0.45 0.45 0 1 0 0.9 0 a0.45 0.45 0 1 0 -0.9 0Z M40.05 16.5 a0.45 0.45 0 1 0 0.9 0 a0.45 0.45 0 1 0 -0.9 0Z M5.05 17.5 a0.45 0.45 0 1 0 0.9 0 a0.45 0.45 0 1 0 -0.9 0Z M7.05 17.5 a0.45 0.45 0 1 0 0.9 0 a0.45 0.45 0 1 0 -0.9 0Z M8.05 17.5 a0.45 0.45 0 1 0 0.9 0 a0.45 0.45 0 1 0 -0.9 0Z M11.05 17.5 a0.45 0.45 0 1 0 0.9 0 a0.45 0.45 0 1 0 -0.9 0Z M12.05 17.5 a0.45 0.45 0 1 0 0.9 0 a0.45 0.45 0 1 0 -0.9 0Z M14.05 17.5 a0.45 0.45 0 1 0 0.9 0 a0.45 0.45 0 1 0 -0.9 0Z M16.05 17.5 a0.45 0.45 0 1 0 0.9 0 a0.45 0.45 0 1 0 -0.9 0Z M20.05 17.5 a0.45 0.45 0 1 0 0.9 0 a0.45 0.45 0 1 0 -0.9 0Z M22.05 17.5 a0.45 0.45 0 1 0 0.9 0 a0.45 0.45 0 1 0 -0.9 0Z M23.05 17.5 a0.45 0.45 0 1 0 0.9 0 a0.45 0.45 0 1 0 -0.9 0Z M26.05 17.5 a0.45 0.45 0 1 0 0.9 0 a0.45 0.45 0 1 0 -0.9 0Z M27.05 17.5 a0.45 0.45 0 1 0 0.9 0 a0.45 0.45 0 1 0 -0.9 0Z M28.05 17.5 a0.45 0.45 0 1 0 0.9 0 a0.45 0.45 0 1 0 -0.9 0Z M31.05 17.5 a0.45 0.45 0 1 0 0.9 0 a0.45 0.45 0 1 0 -0.9 0Z M32.05 17.5 a0.45 0.45 0 1 0 0.9 0 a0.45 0.45 0 1 0 -0.9 0Z M33.05 17.5 a0.45 0.45 0 1 0 0.9 0 a0.45 0.45 0 1 0 -0.9 0Z M36.05 17.5 a0.45 0.45 0 1 0 0.9 0 a0.45 0.45 0 1 0 -0.9 0Z M38.05 17.5 a0.45 0.45 0 1 0 0.9 0 a0.45 0.45 0 1 0 -0.9 0Z M5.05 18.5 a0.45 0.45 0 1 0 0.9 0 a0.45 0.45 0 1 0 -0.9 0Z M6.05 18.5 a0.45 0.45 0 1 0 0.9 0 a0.45 0.45 0 1 0 -0.9 0Z M9.05 18.5 a0.45 0.45 0 1 0 0.9 0 a0.45 0.45 0 1 0 -0.9 0Z M11.05 18.5 a0.45 0.45 0 1 0 0.9 0 a0.45 0.45 0 1 0 -0.9 0Z M12.05 18.5 a0.45 0.45 0 1 0 0.9 0 a0.45 0.45 0 1 0 -0.9 0Z M17.05 18.5 a0.45 0.45 0 1 0 0.9 0 a0.45 0.45 0 1 0 -0.9 0Z M27.05 18.5 a0.45 0.45 0 1 0 0.9 0 a0.45 0.45 0 1 0 -0.9 0Z M28.05 18.5 a0.45 0.45 0 1 0 0.9 0 a0.45 0.45 0 1 0 -0.9 0Z M29.05 18.5 a0.45 0.45 0 1 0 0.9 0 a0.45 0.45 0 1 0 -0.9 0Z M30.05 18.5 a0.45 0.45 0 1 0 0.9 0 a0.45 0.45 0 1 0 -0.9 0Z M31.05 18.5 a0.45 0.45 0 1 0 0.9 0 a0.45 0.45 0 1 0 -0.9 0Z M33.05 18.5 a0.45 0.45 0 1 0 0.9 0 a0.45 0.45 0 1 0 -0.9 0Z M35.05 18.5 a0.45 0.45 0 1 0 0.9 0 a0.45 0.45 0 1 0 -0.9 0Z M36.05 18.5 a0.45 0.45 0 1 0 0.9 0 a0.45 0.45 0 1 0 -0.9 0Z M37.05 18.5 a0.45 0.45 0 1 0 0.9 0 a0.45 0.45 0 1 0 -0.9 0Z M38.05 18.5 a0.45 0.45 0 1 0 0.9 0 a0.45 0.45 0 1 0 -0.9 0Z M39.05 18.5 a0.45 0.45 0 1 0 0.9 0 a0.45 0.45 0 1 0 -0.9 0Z M4.05 19.5 a0.45 0.45 0 1 0 0.9 0 a0.45 0.45 0 1 0 -0.9 0Z M5.05 19.5 a0.45 0.45 0 1 0 0.9 0 a0.45 0.45 0 1 0 -0.9 0Z M6.05 19.5 a0.45 0.45 0 1 0 0.9 0 a0.45 0.45 0 1 0 -0.9 0Z M7.05 19.5 a0.45 0.45 0 1 0 0.9 0 a0.45 0.45 0 1 0 -0.9 0Z M8.05 19.5 a0.45 0.45 0 1 0 0.9 0 a0.45 0.45 0 1 0 -0.9 0Z M13.05 19.5 a0.45 0.45 0 1 0 0.9 0 a0.45 0.45 0 1 0 -0.9 0Z M14.05 19.5 a0.45 0.45 0 1 0 0.9 0 a0.45 0.45 0 1 0 -0.9 0Z M27.05 19.5 a0.45 0.45 0 1 0 0.9 0 a0.45 0.45 0 1 0 -0.9 0Z M28.05 19.5 a0.45 0.45 0 1 0 0.9 0 a0.45 0.45 0 1 0 -0.9 0Z M30.05 19.5 a0.45 0.45 0 1 0 0.9 0 a0.45 0.45 0 1 0 -0.9 0Z M32.05 19.5 a0.45 0.45 0 1 0 0.9 0 a0.45 0.45 0 1 0 -0.9 0Z M34.05 19.5 a0.45 0.45 0 1 0 0.9 0 a0.45 0.45 0 1 0 -0.9 0Z M35.05 19.5 a0.45 0.45 0 1 0 0.9 0 a0.45 0.45 0 1 0 -0.9 0Z M36.05 19.5 a0.45 0.45 0 1 0 0.9 0 a0.45 0.45 0 1 0 -0.9 0Z M38.05 19.5 a0.45 0.45 0 1 0 0.9 0 a0.45 0.45 0 1 0 -0.9 0Z
M40.05 19.5 a0.45 0.45 0 1 0 0.9 0 a0.45 0.45 0 1 0 -0.9 0Z M4.05 20.5 a0.45 0.45 0 1 0 0.9 0 a0.45 0.45 0 1 0 -0.9 0Z M7.05 20.5 a0.45 0.45 0 1 0 0.9 0 a0.45 0.45 0 1 0 -0.9 0Z M9.05 20.5 a0.45 0.45 0 1 0 0.9 0 a0.45 0.45 0 1 0 -0.9 0Z M13.05 20.5 a0.45 0.45 0 1 0 0.9 0 a0.45 0.45 0 1 0 -0.9 0Z M15.05 20.5 a0.45 0.45 0 1 0 0.9 0 a0.45 0.45 0 1 0 -0.9 0Z M16.05 20.5 a0.45 0.45 0 1 0 0.9 0 a0.45 0.45 0 1 0 -0.9 0Z M17.05 20.5 a0.45 0.45 0 1 0 0.9 0 a0.45 0.45 0 1 0 -0.9 0Z M33.05 20.5 a0.45 0.45 0 1 0 0.9 0 a0.45 0.45 0 1 0 -0.9 0Z M34.05 20.5 a0.45 0.45 0 1 0 0.9 0 a0.45 0.45 0 1 0 -0.9 0Z M35.05 20.5 a0.45 0.45 0 1 0 0.9 0 a0.45 0.45 0 1 0 -0.9 0Z M37.05 20.5 a0.45 0.45 0 1 0 0.9 0 a0.45 0.45 0 1 0 -0.9 0Z M38.05 20.5 a0.45 0.45 0 1 0 0.9 0 a0.45 0.45 0 1 0 -0.9 0Z M39.05 20.5 a0.45 0.45 0 1 0 0.9 0 a0.45 0.45 0 1 0 -0.9 0Z M40.05 20.5 a0.45 0.45 0 1 0 0.9 0 a0.45 0.45 0 1 0 -0.9 0Z M5.05 21.5 a0.45 0.45 0 1 0 0.9 0 a0.45 0.45 0 1 0 -0.9 0Z M6.05 21.5 a0.45 0.45 0 1 0 0.9 0 a0.45 0.45 0 1 0 -0.9 0Z M8.05 21.5 a0.45 0.45 0 1 0 0.9 0 a0.45 0.45 0 1 0 -0.9 0Z M9.05 21.5 a0.45 0.45 0 1 0 0.9 0 a0.45 0.45 0 1 0 -0.9 0Z M16.05 21.5 a0.45 0.45 0 1 0 0.9 0 a0.45 0.45 0 1 0 -0.9 0Z M29.05 21.5 a0.45 0.45 0 1 0 0.9 0 a0.45 0.45 0 1 0 -0.9 0Z M30.05 21.5 a0.45 0.45 0 1 0 0.9 0 a0.45 0.45 0 1 0 -0.9 0Z M31.05 21.5 a0.45 0.45 0 1 0 0.9 0 a0.45 0.45 0 1 0 -0.9 0Z M32.05 21.5 a0.45 0.45 0 1 0 0.9 0 a0.45 0.45 0 1 0 -0.9 0Z M36.05 21.5 a0.45 0.45 0 1 0 0.9 0 a0.45 0.45 0 1 0 -0.9 0Z M37.05 21.5 a0.45 0.45 0 1 0 0.9 0 a0.45 0.45 0 1 0 -0.9 0Z M38.05 21.5 a0.45 0.45 0 1 0 0.9 0 a0.45 0.45 0 1 0 -0.9 0Z M4.05 22.5 a0.45 0.45 0 1 0 0.9 0 a0.45 0.45 0 1 0 -0.9 0Z M5.05 22.5 a0.45 0.45 0 1 0 0.9 0 a0.45 0.45 0 1 0 -0.9 0Z M9.05 22.5 a0.45 0.45 0 1 0 0.9 0 a0.45 0.45 0 1 0 -0.9 0Z M11.05 22.5 a0.45 0.45 0 1 0 0.9 0 a0.45 0.45 0 1 0 -0.9 0Z M13.05 22.5 a0.45 0.45 0 1 0 0.9 0 a0.45 0.45 0 1 0 -0.9 0Z M14.05 22.5 a0.45 0.45 0 1 0 0.9 0 a0.45 0.45 0 1 0 -0.9 0Z M15.05 22.5 a0.45 0.45 0 1 0 0.9 0 a0.45 0.45 0 1 0 -0.9 0Z M16.05 22.5 a0.45 0.45 0 1 0 0.9 0 a0.45 0.45 0 1 0 -0.9 0Z M17.05 22.5 a0.45 0.45 0 1 0 0.9 0 a0.45 0.45 0 1 0 -0.9 0Z M28.05 22.5 a0.45 0.45 0 1 0 0.9 0 a0.45 0.45 0 1 0 -0.9 0Z M29.05 22.5 a0.45 0.45 0 1 0 0.9 0 a0.45 0.45 0 1 0 -0.9 0Z M31.05 22.5 a0.45 0.45 0 1 0 0.9 0 a0.45 0.45 0 1 0 -0.9 0Z M32.05 22.5 a0.45 0.45 0 1 0 0.9 0 a0.45 0.45 0 1 0 -0.9 0Z M35.05 22.5 a0.45 0.45 0 1 0 0.9 0 a0.45 0.45 0 1 0 -0.9 0Z M37.05 22.5 a0.45 0.45 0 1 0 0.9 0 a0.45 0.45 0 1 0 -0.9 0Z M4.05 23.5 a0.45 0.45 0 1 0 0.9 0 a0.45 0.45 0 1 0 -0.9 0Z M5.05 23.5 a0.45 0.45 0 1 0 0.9 0 a0.45 0.45 0 1 0 -0.9 0Z M6.05 23.5 a0.45 0.45 0 1 0 0.9 0 a0.45 0.45 0 1 0 -0.9 0Z M7.05 23.5 a0.45 0.45 0 1 0 0.9 0 a0.45 0.45 0 1 0 -0.9 0Z M8.05 23.5 a0.45 0.45 0 1 0 0.9 0 a0.45 0.45 0 1 0 -0.9 0Z M15.05 23.5 a0.45 0.45 0 1 0 0.9 0 a0.45 0.45 0 1 0 -0.9 0Z M16.05 23.5 a0.45 0.45 0 1 0 0.9 0 a0.45 0.45 0 1 0 -0.9 0Z M27.05 23.5 a0.45 0.45 0 1 0 0.9 0 a0.45 0.45 0 1 0 -0.9 0Z M30.05 23.5 a0.45 0.45 0 1 0 0.9 0 a0.45 0.45 0 1 0 -0.9 0Z M32.05 23.5 a0.45 0.45 0 1 0 0.9 0 a0.45 0.45 0 1 0 -0.9 0Z M38.05 23.5 a0.45 0.45 0 1 0 0.9 0 a0.45 0.45 0 1 0 -0.9 0Z M39.05 23.5 a0.45 0.45 0 1 0 0.9 0 a0.45 0.45 0 1 0 -0.9 0Z M4.05 24.5 a0.45 0.45 0 1 0 0.9 0 a0.45 0.45 0 1 0 -0.9 0Z M5.05 24.5 a0.45 0.45 0 1 0 0.9 0 a0.45 0.45 0 1 0 -0.9 0Z M6.05 24.5 a0.45 0.45 0 1 0 0.9 0 a0.45 0.45 0 1 0 -0.9 0Z M7.05 24.5 a0.45 0.45 0 1 0 0.9 0 a0.45 0.45 0 1 0 -0.9 0Z M9.05 24.5 a0.45 0.45 0 1 0 0.9 0 a0.45 0.45 0 1 0 -0.9 0Z M12.05 24.5 a0.45 0.45 0 1 0 0.9 0 a0.45 0.45 0 1 0 -0.9 0Z M13.05 24.5 a0.45 0.45 0 1 0 0.9 0 a0.45 0.45 0 1 0 -0.9 0Z M14.05 24.5 a0.45 0.45 0 1 0 0.9 0 a0.45 0.45 0 1 0 -0.9 0Z M15.05 24.5 a0.45 0.45 0 1 0 0.9 0 a0.45 0.45 0 1 0 -0.9 0Z M16.05 24.5 a0.45 0.45 0 1 0 0.9 0 a0.45 0.45 0 1 0 -0.9 0Z M17.05 24.5 a0.45 0.45 0 1 0 0.9 0 a0.45 0.45 0 1 0 -0.9 0Z M27.05 24.5 a0.45 0.45 0 1 0 0.9 0 a0.45 0.45 0 1 0 -0.9 0Z M28.05 24.5 a0.45 0.45 0 1 0 0.9 0 a0.45 0.45 0 1 0 -0.9 0Z M33.05 24.5 a0.45 0.45 0 1 0 0.9 0 a0.45 0.45 0 1 0 -0.9 0Z M34.05 24.5 a0.45 0.45 0 1 0 0.9 0 a0.45 0.45 0 1 0 -0.9 0Z M38.05 24.5 a0.45 0.45 0 1 0 0.9 0 a0.45 0.45 0 1 0 -0.9 0Z M39.05 24.5 a0.45 0.45 0 1 0 0.9 0 a0.45 0.45 0 1 0 -0.9 0Z M40.05 24.5 a0.45 0.45 0 1 0 0.9 0 a0.45 0.45 0 1 0 -0.9 0Z M4.05 25.5 a0.45 0.45 0 1 0 0.9 0 a0.45 0.45 0 1 0 -0.9 0Z M8.05 25.5 a0.45 0.45 0 1 0 0.9 0 a0.45 0.45 0 1 0 -0.9 0Z M11.05 25.5 a0.45 0.45 0 1 0 0.9 0 a0.45 0.45 0 1 0 -0.9 0Z M13.05 25.5 a0.45 0.45 0 1 0 0.9 0 a0.45 0.45 0 1 0 -0.9 0Z M16.05 25.5 a0.45 0.45 0 1 0 0.9 0 a0.45 0.45 0 1 0 -0.9 0Z M27.05 25.5 a0.45 0.45 0 1 0 0.9 0 a0.45 0.45 0 1 0 -0.9 0Z M29.05 25.5 a0.45 0.45 0 1 0 0.9 0 a0.45 0.45 0 1 0 -0.9 0Z M30.05 25.5 a0.45 0.45 0 1 0 0.9 0 a0.45 0.45 0 1 0 -0.9 0Z M31.05 25.5 a0.45 0.45 0 1 0 0.9 0 a0.45 0.45 0 1 0 -0.9 0Z M36.05 25.5 a0.45 0.45 0 1 0 0.9 0 a0.45 0.45 0 1 0 -0.9 0Z M37.05 25.5 a0.45 0.45 0 1 0 0.9 0 a0.45 0.45 0 1 0 -0.9 0Z M38.05 25.5 a0.45 0.45 0 1 0 0.9 0 a0.45 0.45 0 1 0 -0.9 0Z M4.05 26.5 a0.45 0.45 0 1 0 0.9 0 a0.45 0.45 0 1 0 -0.9 0Z M6.05 26.5 a0.45 0.45 0 1 0 0.9 0 a0.45 0.45 0 1 0 -0.9 0Z M7.05 26.5 a0.45 0.45 0 1 0 0.9 0 a0.45 0.45 0 1 0 -0.9 0Z M9.05 26.5 a0.45 0.45 0 1 0 0.9 0 a0.45 0.45 0 1 0 -0.9 0Z M11.05 26.5 a0.45 0.45 0 1 0 0.9 0 a0.45 0.45 0 1 0 -0.9 0Z M12.05 26.5 a0.45 0.45 0 1 0 0.9 0 a0.45 0.45 0 1 0 -0.9 0Z M13.05 26.5 a0.45 0.45 0 1 0 0.9 0 a0.45 0.45 0 1 0 -0.9 0Z M27.05 26.5 a0.45 0.45 0 1 0 0.9 0 a0.45 0.45 0 1 0 -0.9 0Z M31.05 26.5 a0.45 0.45 0 1 0 0.9 0 a0.45 0.45 0 1 0 -0.9 0Z M32.05 26.5 a0.45 0.45 0 1 0 0.9 0 a0.45 0.45 0 1 0 -0.9 0Z M33.05 26.5 a0.45 0.45 0 1 0 0.9 0 a0.45 0.45 0 1 0 -0.9 0Z M4.05 27.5 a0.45 0.45 0 1 0 0.9 0 a0.45 0.45 0 1 0 -0.9 0Z M6.05 27.5 a0.45 0.45 0 1 0 0.9 0 a0.45 0.45 0 1 0 -0.9 0Z M7.05 27.5 a0.45 0.45 0 1 0 0.9 0 a0.45 0.45 0 1 0 -0.9 0Z M11.05 27.5 a0.45 0.45 0 1 0 0.9 0 a0.45 0.45 0 1 0 -0.9 0Z M12.05 27.5 a0.45 0.45 0 1 0 0.9 0 a0.45 0.45 0 1 0 -0.9 0Z
M14.05 27.5 a0.45 0.45 0 1 0 0.9 0 a0.45 0.45 0 1 0 -0.9 0Z M15.05 27.5 a0.45 0.45 0 1 0 0.9 0 a0.45 0.45 0 1 0 -0.9 0Z M16.05 27.5 a0.45 0.45 0 1 0 0.9 0 a0.45 0.45 0 1 0 -0.9 0Z M18.05 27.5 a0.45 0.45 0 1 0 0.9 0 a0.45 0.45 0 1 0 -0.9 0Z M19.05 27.5 a0.45 0.45 0 1 0 0.9 0 a0.45 0.45 0 1 0 -0.9 0Z M22.05 27.5 a0.45 0.45 0 1 0 0.9 0 a0.45 0.45 0 1 0 -0.9 0Z M24.05 27.5 a0.45 0.45 0 1 0 0.9 0 a0.45 0.45 0 1 0 -0.9 0Z M25.05 27.5 a0.45 0.45 0 1 0 0.9 0 a0.45 0.45 0 1 0 -0.9 0Z M26.05 27.5 a0.45 0.45 0 1 0 0.9 0 a0.45 0.45 0 1 0 -0.9 0Z M30.05 27.5 a0.45 0.45 0 1 0 0.9 0 a0.45 0.45 0 1 0 -0.9 0Z M32.05 27.5 a0.45 0.45 0 1 0 0.9 0 a0.45 0.45 0 1 0 -0.9 0Z M35.05 27.5 a0.45 0.45 0 1 0 0.9 0 a0.45 0.45 0 1 0 -0.9 0Z M38.05 27.5 a0.45 0.45 0 1 0 0.9 0 a0.45 0.45 0 1 0 -0.9 0Z M40.05 27.5 a0.45 0.45 0 1 0 0.9 0 a0.45 0.45 0 1 0 -0.9 0Z M4.05 28.5 a0.45 0.45 0 1 0 0.9 0 a0.45 0.45 0 1 0 -0.9 0Z M5.05 28.5 a0.45 0.45 0 1 0 0.9 0 a0.45 0.45 0 1 0 -0.9 0Z M6.05 28.5 a0.45 0.45 0 1 0 0.9 0 a0.45 0.45 0 1 0 -0.9 0Z M7.05 28.5 a0.45 0.45 0 1 0 0.9 0 a0.45 0.45 0 1 0 -0.9 0Z M8.05 28.5 a0.45 0.45 0 1 0 0.9 0 a0.45 0.45 0 1 0 -0.9 0Z M9.05 28.5 a0.45 0.45 0 1 0 0.9 0 a0.45 0.45 0 1 0 -0.9 0Z M14.05 28.5 a0.45 0.45 0 1 0 0.9 0 a0.45 0.45 0 1 0 -0.9 0Z M15.05 28.5 a0.45 0.45 0 1 0 0.9 0 a0.45 0.45 0 1 0 -0.9 0Z M17.05 28.5 a0.45 0.45 0 1 0 0.9 0 a0.45 0.45 0 1 0 -0.9 0Z M19.05 28.5 a0.45 0.45 0 1 0 0.9 0 a0.45 0.45 0 1 0 -0.9 0Z M21.05 28.5 a0.45 0.45 0 1 0 0.9 0 a0.45 0.45 0 1 0 -0.9 0Z M22.05 28.5 a0.45 0.45 0 1 0 0.9 0 a0.45 0.45 0 1 0 -0.9 0Z M24.05 28.5 a0.45 0.45 0 1 0 0.9 0 a0.45 0.45 0 1 0 -0.9 0Z M29.05 28.5 a0.45 0.45 0 1 0 0.9 0 a0.45 0.45 0 1 0 -0.9 0Z M30.05 28.5 a0.45 0.45 0 1 0 0.9 0 a0.45 0.45 0 1 0 -0.9 0Z M31.05 28.5 a0.45 0.45 0 1 0 0.9 0 a0.45 0.45 0 1 0 -0.9 0Z M34.05 28.5 a0.45 0.45 0 1 0 0.9 0 a0.45 0.45 0 1 0 -0.9 0Z M35.05 28.5 a0.45 0.45 0 1 0 0.9 0 a0.45 0.45 0 1 0 -0.9 0Z M36.05 28.5 a0.45 0.45 0 1 0 0.9 0 a0.45 0.45 0 1 0 -0.9 0Z M38.05 28.5 a0.45 0.45 0 1 0 0.9 0 a0.45 0.45 0 1 0 -0.9 0Z M40.05 28.5 a0.45 0.45 0 1 0 0.9 0 a0.45 0.45 0 1 0 -0.9 0Z M4.05 29.5 a0.45 0.45 0 1 0 0.9 0 a0.45 0.45 0 1 0 -0.9 0Z M6.05 29.5 a0.45 0.45 0 1 0 0.9 0 a0.45 0.45 0 1 0 -0.9 0Z M7.05 29.5 a0.45 0.45 0 1 0 0.9 0 a0.45 0.45 0 1 0 -0.9 0Z M11.05 29.5 a0.45 0.45 0 1 0 0.9 0 a0.45 0.45 0 1 0 -0.9 0Z M13.05 29.5 a0.45 0.45 0 1 0 0.9 0 a0.45 0.45 0 1 0 -0.9 0Z M15.05 29.5 a0.45 0.45 0 1 0 0.9 0 a0.45 0.45 0 1 0 -0.9 0Z M19.05 29.5 a0.45 0.45 0 1 0 0.9 0 a0.45 0.45 0 1 0 -0.9 0Z M20.05 29.5 a0.45 0.45 0 1 0 0.9 0 a0.45 0.45 0 1 0 -0.9 0Z M22.05 29.5 a0.45 0.45 0 1 0 0.9 0 a0.45 0.45 0 1 0 -0.9 0Z M23.05 29.5 a0.45 0.45 0 1 0 0.9 0 a0.45 0.45 0 1 0 -0.9 0Z M24.05 29.5 a0.45 0.45 0 1 0 0.9 0 a0.45 0.45 0 1 0 -0.9 0Z M28.05 29.5 a0.45 0.45 0 1 0 0.9 0 a0.45 0.45 0 1 0 -0.9 0Z M29.05 29.5 a0.45 0.45 0 1 0 0.9 0 a0.45 0.45 0 1 0 -0.9 0Z M32.05 29.5 a0.45 0.45 0 1 0 0.9 0 a0.45 0.45 0 1 0 -0.9 0Z M33.05 29.5 a0.45 0.45 0 1 0 0.9 0 a0.45 0.45 0 1 0 -0.9 0Z M34.05 29.5 a0.45 0.45 0 1 0 0.9 0 a0.45 0.45 0 1 0 -0.9 0Z M35.05 29.5 a0.45 0.45 0 1 0 0.9 0 a0.45 0.45 0 1 0 -0.9 0Z M36.05 29.5 a0.45 0.45 0 1 0 0.9 0 a0.45 0.45 0 1 0 -0.9 0Z M37.05 29.5 a0.45 0.45 0 1 0 0.9 0 a0.45 0.45 0 1 0 -0.9 0Z M6.05 30.5 a0.45 0.45 0 1 0 0.9 0 a0.45 0.45 0 1 0 -0.9 0Z M7.05 30.5 a0.45 0.45 0 1 0 0.9 0 a0.45 0.45 0 1 0 -0.9 0Z M8.05 30.5 a0.45 0.45 0 1 0 0.9 0 a0.45 0.45 0 1 0 -0.9 0Z M11.05 30.5 a0.45 0.45 0 1 0 0.9 0 a0.45 0.45 0 1 0 -0.9 0Z M12.05 30.5 a0.45 0.45 0 1 0 0.9 0 a0.45 0.45 0 1 0 -0.9 0Z M14.05 30.5 a0.45 0.45 0 1 0 0.9 0 a0.45 0.45 0 1 0 -0.9 0Z M15.05 30.5 a0.45 0.45 0 1 0 0.9 0 a0.45 0.45 0 1 0 -0.9 0Z M16.05 30.5 a0.45 0.45 0 1 0 0.9 0 a0.45 0.45 0 1 0 -0.9 0Z M19.05 30.5 a0.45 0.45 0 1 0 0.9 0 a0.45 0.45 0 1 0 -0.9 0Z M22.05 30.5 a0.45 0.45 0 1 0 0.9 0 a0.45 0.45 0 1 0 -0.9 0Z M27.05 30.5 a0.45 0.45 0 1 0 0.9 0 a0.45 0.45 0 1 0 -0.9 0Z M28.05 30.5 a0.45 0.45 0 1 0 0.9 0 a0.45 0.45 0 1 0 -0.9 0Z M29.05 30.5 a0.45 0.45 0 1 0 0.9 0 a0.45 0.45 0 1 0 -0.9 0Z M30.05 30.5 a0.45 0.45 0 1 0 0.9 0 a0.45 0.45 0 1 0 -0.9 0Z M32.05 30.5 a0.45 0.45 0 1 0 0.9 0 a0.45 0.45 0 1 0 -0.9 0Z M33.05 30.5 a0.45 0.45 0 1 0 0.9 0 a0.45 0.45 0 1 0 -0.9 0Z M36.05 30.5 a0.45 0.45 0 1 0 0.9 0 a0.45 0.45 0 1 0 -0.9 0Z M37.05 30.5 a0.45 0.45 0 1 0 0.9 0 a0.45 0.45 0 1 0 -0.9 0Z M7.05 31.5 a0.45 0.45 0 1 0 0.9 0 a0.45 0.45 0 1 0 -0.9 0Z M8.05 31.5 a0.45 0.45 0 1 0 0.9 0 a0.45 0.45 0 1 0 -0.9 0Z M9.05 31.5 a0.45 0.45 0 1 0 0.9 0 a0.45 0.45 0 1 0 -0.9 0Z M14.05 31.5 a0.45 0.45 0 1 0 0.9 0 a0.45 0.45 0 1 0 -0.9 0Z M15.05 31.5 a0.45 0.45 0 1 0 0.9 0 a0.45 0.45 0 1 0 -0.9 0Z M16.05 31.5 a0.45 0.45 0 1 0 0.9 0 a0.45 0.45 0 1 0 -0.9 0Z M17.05 31.5 a0.45 0.45 0 1 0 0.9 0 a0.45 0.45 0 1 0 -0.9 0Z M21.05 31.5 a0.45 0.45 0 1 0 0.9 0 a0.45 0.45 0 1 0 -0.9 0Z M23.05 31.5 a0.45 0.45 0 1 0 0.9 0 a0.45 0.45 0 1 0 -0.9 0Z M24.05 31.5 a0.45 0.45 0 1 0 0.9 0 a0.45 0.45 0 1 0 -0.9 0Z M27.05 31.5 a0.45 0.45 0 1 0 0.9 0 a0.45 0.45 0 1 0 -0.9 0Z M30.05 31.5 a0.45 0.45 0 1 0 0.9 0 a0.45 0.45 0 1 0 -0.9 0Z M34.05 31.5 a0.45 0.45 0 1 0 0.9 0 a0.45 0.45 0 1 0 -0.9 0Z M35.05 31.5 a0.45 0.45 0 1 0 0.9 0 a0.45 0.45 0 1 0 -0.9 0Z M36.05 31.5 a0.45 0.45 0 1 0 0.9 0 a0.45 0.45 0 1 0 -0.9 0Z M38.05 31.5 a0.45 0.45 0 1 0 0.9 0 a0.45 0.45 0 1 0 -0.9 0Z M39.05 31.5 a0.45 0.45 0 1 0 0.9 0 a0.45 0.45 0 1 0 -0.9 0Z M40.05 31.5 a0.45 0.45 0 1 0 0.9 0 a0.45 0.45 0 1 0 -0.9 0Z M4.05 32.5 a0.45 0.45 0 1 0 0.9 0 a0.45 0.45 0 1 0 -0.9 0Z M5.05 32.5 a0.45 0.45 0 1 0 0.9 0 a0.45 0.45 0 1 0 -0.9 0Z M6.05 32.5 a0.45 0.45 0 1 0 0.9 0 a0.45 0.45 0 1 0 -0.9 0Z M8.05 32.5 a0.45 0.45 0 1 0 0.9 0 a0.45 0.45 0 1 0 -0.9 0Z M9.05 32.5 a0.45 0.45 0 1 0 0.9 0 a0.45 0.45 0 1 0 -0.9 0Z M12.05 32.5 a0.45 0.45 0 1 0 0.9 0 a0.45 0.45 0 1 0 -0.9 0Z M13.05 32.5 a0.45 0.45 0 1 0 0.9 0 a0.45 0.45 0 1 0 -0.9 0Z M16.05 32.5 a0.45 0.45 0 1 0 0.9 0 a0.45 0.45 0 1 0 -0.9 0Z M17.05 32.5 a0.45 0.45 0 1 0 0.9 0 a0.45 0.45 0 1 0 -0.9 0Z M18.05 32.5 a0.45 0.45 0 1 0 0.9 0 a0.45 0.45 0 1 0 -0.9 0Z
M19.05 32.5 a0.45 0.45 0 1 0 0.9 0 a0.45 0.45 0 1 0 -0.9 0Z M20.05 32.5 a0.45 0.45 0 1 0 0.9 0 a0.45 0.45 0 1 0 -0.9 0Z M21.05 32.5 a0.45 0.45 0 1 0 0.9 0 a0.45 0.45 0 1 0 -0.9 0Z M22.05 32.5 a0.45 0.45 0 1 0 0.9 0 a0.45 0.45 0 1 0 -0.9 0Z M23.05 32.5 a0.45 0.45 0 1 0 0.9 0 a0.45 0.45 0 1 0 -0.9 0Z M28.05 32.5 a0.45 0.45 0 1 0 0.9 0 a0.45 0.45 0 1 0 -0.9 0Z M31.05 32.5 a0.45 0.45 0 1 0 0.9 0 a0.45 0.45 0 1 0 -0.9 0Z M38.05 32.5 a0.45 0.45 0 1 0 0.9 0 a0.45 0.45 0 1 0 -0.9 0Z M39.05 32.5 a0.45 0.45 0 1 0 0.9 0 a0.45 0.45 0 1 0 -0.9 0Z M14.05 33.5 a0.45 0.45 0 1 0 0.9 0 a0.45 0.45 0 1 0 -0.9 0Z M15.05 33.5 a0.45 0.45 0 1 0 0.9 0 a0.45 0.45 0 1 0 -0.9 0Z M17.05 33.5 a0.45 0.45 0 1 0 0.9 0 a0.45 0.45 0 1 0 -0.9 0Z M18.05 33.5 a0.45 0.45 0 1 0 0.9 0 a0.45 0.45 0 1 0 -0.9 0Z M20.05 33.5 a0.45 0.45 0 1 0 0.9 0 a0.45 0.45 0 1 0 -0.9 0Z M27.05 33.5 a0.45 0.45 0 1 0 0.9 0 a0.45 0.45 0 1 0 -0.9 0Z M31.05 33.5 a0.45 0.45 0 1 0 0.9 0 a0.45 0.45 0 1 0 -0.9 0Z M37.05 33.5 a0.45 0.45 0 1 0 0.9 0 a0.45 0.45 0 1 0 -0.9 0Z M39.05 33.5 a0.45 0.45 0 1 0 0.9 0 a0.45 0.45 0 1 0 -0.9 0Z M13.05 34.5 a0.45 0.45 0 1 0 0.9 0 a0.45 0.45 0 1 0 -0.9 0Z M14.05 34.5 a0.45 0.45 0 1 0 0.9 0 a0.45 0.45 0 1 0 -0.9 0Z M15.05 34.5 a0.45 0.45 0 1 0 0.9 0 a0.45 0.45 0 1 0 -0.9 0Z M16.05 34.5 a0.45 0.45 0 1 0 0.9 0 a0.45 0.45 0 1 0 -0.9 0Z M18.05 34.5 a0.45 0.45 0 1 0 0.9 0 a0.45 0.45 0 1 0 -0.9 0Z M19.05 34.5 a0.45 0.45 0 1 0 0.9 0 a0.45 0.45 0 1 0 -0.9 0Z M20.05 34.5 a0.45 0.45 0 1 0 0.9 0 a0.45 0.45 0 1 0 -0.9 0Z M23.05 34.5 a0.45 0.45 0 1 0 0.9 0 a0.45 0.45 0 1 0 -0.9 0Z M26.05 34.5 a0.45 0.45 0 1 0 0.9 0 a0.45 0.45 0 1 0 -0.9 0Z M27.05 34.5 a0.45 0.45 0 1 0 0.9 0 a0.45 0.45 0 1 0 -0.9 0Z M28.05 34.5 a0.45 0.45 0 1 0 0.9 0 a0.45 0.45 0 1 0 -0.9 0Z M29.05 34.5 a0.45 0.45 0 1 0 0.9 0 a0.45 0.45 0 1 0 -0.9 0Z M37.05 34.5 a0.45 0.45 0 1 0 0.9 0 a0.45 0.45 0 1 0 -0.9 0Z M38.05 34.5 a0.45 0.45 0 1 0 0.9 0 a0.45 0.45 0 1 0 -0.9 0Z M13.05 35.5 a0.45 0.45 0 1 0 0.9 0 a0.45 0.45 0 1 0 -0.9 0Z M14.05 35.5 a0.45 0.45 0 1 0 0.9 0 a0.45 0.45 0 1 0 -0.9 0Z M15.05 35.5 a0.45 0.45 0 1 0 0.9 0 a0.45 0.45 0 1 0 -0.9 0Z M16.05 35.5 a0.45 0.45 0 1 0 0.9 0 a0.45 0.45 0 1 0 -0.9 0Z M18.05 35.5 a0.45 0.45 0 1 0 0.9 0 a0.45 0.45 0 1 0 -0.9 0Z M19.05 35.5 a0.45 0.45 0 1 0 0.9 0 a0.45 0.45 0 1 0 -0.9 0Z M20.05 35.5 a0.45 0.45 0 1 0 0.9 0 a0.45 0.45 0 1 0 -0.9 0Z M22.05 35.5 a0.45 0.45 0 1 0 0.9 0 a0.45 0.45 0 1 0 -0.9 0Z M24.05 35.5 a0.45 0.45 0 1 0 0.9 0 a0.45 0.45 0 1 0 -0.9 0Z M25.05 35.5 a0.45 0.45 0 1 0 0.9 0 a0.45 0.45 0 1 0 -0.9 0Z M27.05 35.5 a0.45 0.45 0 1 0 0.9 0 a0.45 0.45 0 1 0 -0.9 0Z M28.05 35.5 a0.45 0.45 0 1 0 0.9 0 a0.45 0.45 0 1 0 -0.9 0Z M30.05 35.5 a0.45 0.45 0 1 0 0.9 0 a0.45 0.45 0 1 0 -0.9 0Z M38.05 35.5 a0.45 0.45 0 1 0 0.9 0 a0.45 0.45 0 1 0 -0.9 0Z M40.05 35.5 a0.45 0.45 0 1 0 0.9 0 a0.45 0.45 0 1 0 -0.9 0Z M14.05 36.5 a0.45 0.45 0 1 0 0.9 0 a0.45 0.45 0 1 0 -0.9 0Z M16.05 36.5 a0.45 0.45 0 1 0 0.9 0 a0.45 0.45 0 1 0 -0.9 0Z M17.05 36.5 a0.45 0.45 0 1 0 0.9 0 a0.45 0.45 0 1 0 -0.9 0Z M21.05 36.5 a0.45 0.45 0 1 0 0.9 0 a0.45 0.45 0 1 0 -0.9 0Z M22.05 36.5 a0.45 0.45 0 1 0 0.9 0 a0.45 0.45 0 1 0 -0.9 0Z M23.05 36.5 a0.45 0.45 0 1 0 0.9 0 a0.45 0.45 0 1 0 -0.9 0Z M28.05 36.5 a0.45 0.45 0 1 0 0.9 0 a0.45 0.45 0 1 0 -0.9 0Z M30.05 36.5 a0.45 0.45 0 1 0 0.9 0 a0.45 0.45 0 1 0 -0.9 0Z M37.05 36.5 a0.45 0.45 0 1 0 0.9 0 a0.45 0.45 0 1 0 -0.9 0Z M38.05 36.5 a0.45 0.45 0 1 0 0.9 0 a0.45 0.45 0 1 0 -0.9 0Z M39.05 36.5 a0.45 0.45 0 1 0 0.9 0 a0.45 0.45 0 1 0 -0.9 0Z M40.05 36.5 a0.45 0.45 0 1 0 0.9 0 a0.45 0.45 0 1 0 -0.9 0Z M15.05 37.5 a0.45 0.45 0 1 0 0.9 0 a0.45 0.45 0 1 0 -0.9 0Z M16.05 37.5 a0.45 0.45 0 1 0 0.9 0 a0.45 0.45 0 1 0 -0.9 0Z M19.05 37.5 a0.45 0.45 0 1 0 0.9 0 a0.45 0.45 0 1 0 -0.9 0Z M21.05 37.5 a0.45 0.45 0 1 0 0.9 0 a0.45 0.45 0 1 0 -0.9 0Z M25.05 37.5 a0.45 0.45 0 1 0 0.9 0 a0.45 0.45 0 1 0 -0.9 0Z M30.05 37.5 a0.45 0.45 0 1 0 0.9 0 a0.45 0.45 0 1 0 -0.9 0Z M31.05 37.5 a0.45 0.45 0 1 0 0.9 0 a0.45 0.45 0 1 0 -0.9 0Z M34.05 37.5 a0.45 0.45 0 1 0 0.9 0 a0.45 0.45 0 1 0 -0.9 0Z M35.05 37.5 a0.45 0.45 0 1 0 0.9 0 a0.45 0.45 0 1 0 -0.9 0Z M37.05 37.5 a0.45 0.45 0 1 0 0.9 0 a0.45 0.45 0 1 0 -0.9 0Z M13.05 38.5 a0.45 0.45 0 1 0 0.9 0 a0.45 0.45 0 1 0 -0.9 0Z M14.05 38.5 a0.45 0.45 0 1 0 0.9 0 a0.45 0.45 0 1 0 -0.9 0Z M17.05 38.5 a0.45 0.45 0 1 0 0.9 0 a0.45 0.45 0 1 0 -0.9 0Z M18.05 38.5 a0.45 0.45 0 1 0 0.9 0 a0.45 0.45 0 1 0 -0.9 0Z M19.05 38.5 a0.45 0.45 0 1 0 0.9 0 a0.45 0.45 0 1 0 -0.9 0Z M21.05 38.5 a0.45 0.45 0 1 0 0.9 0 a0.45 0.45 0 1 0 -0.9 0Z M23.05 38.5 a0.45 0.45 0 1 0 0.9 0 a0.45 0.45 0 1 0 -0.9 0Z M24.05 38.5 a0.45 0.45 0 1 0 0.9 0 a0.45 0.45 0 1 0 -0.9 0Z M25.05 38.5 a0.45 0.45 0 1 0 0.9 0 a0.45 0.45 0 1 0 -0.9 0Z M26.05 38.5 a0.45 0.45 0 1 0 0.9 0 a0.45 0.45 0 1 0 -0.9 0Z M31.05 38.5 a0.45 0.45 0 1 0 0.9 0 a0.45 0.45 0 1 0 -0.9 0Z M32.05 38.5 a0.45 0.45 0 1 0 0.9 0 a0.45 0.45 0 1 0 -0.9 0Z M34.05 38.5 a0.45 0.45 0 1 0 0.9 0 a0.45 0.45 0 1 0 -0.9 0Z M37.05 38.5 a0.45 0.45 0 1 0 0.9 0 a0.45 0.45 0 1 0 -0.9 0Z M39.05 38.5 a0.45 0.45 0 1 0 0.9 0 a0.45 0.45 0 1 0 -0.9 0Z M15.05 39.5 a0.45 0.45 0 1 0 0.9 0 a0.45 0.45 0 1 0 -0.9 0Z M18.05 39.5 a0.45 0.45 0 1 0 0.9 0 a0.45 0.45 0 1 0 -0.9 0Z M20.05 39.5 a0.45 0.45 0 1 0 0.9 0 a0.45 0.45 0 1 0 -0.9 0Z M21.05 39.5 a0.45 0.45 0 1 0 0.9 0 a0.45 0.45 0 1 0 -0.9 0Z M22.05 39.5 a0.45 0.45 0 1 0 0.9 0 a0.45 0.45 0 1 0 -0.9 0Z M28.05 39.5 a0.45 0.45 0 1 0 0.9 0 a0.45 0.45 0 1 0 -0.9 0Z M31.05 39.5 a0.45 0.45 0 1 0 0.9 0 a0.45 0.45 0 1 0 -0.9 0Z M35.05 39.5 a0.45 0.45 0 1 0 0.9 0 a0.45 0.45 0 1 0 -0.9 0Z M38.05 39.5 a0.45 0.45 0 1 0 0.9 0 a0.45 0.45 0 1 0 -0.9 0Z M39.05 39.5 a0.45 0.45 0 1 0 0.9 0 a0.45 0.45 0 1 0 -0.9 0Z M13.05 40.5 a0.45 0.45 0 1 0 0.9 0 a0.45 0.45 0 1 0 -0.9 0Z M16.05 40.5 a0.45 0.45 0 1 0 0.9 0 a0.45 0.45 0 1 0 -0.9 0Z M17.05 40.5 a0.45 0.45 0 1 0 0.9 0 a0.45 0.45 0 1 0 -0.9 0Z M19.05 40.5 a0.45 0.45 0 1 0 0.9 0 a0.45 0.45 0 1 0 -0.9 0Z M21.05 40.5 a0.45 0.45 0 1 0 0.9 0 a0.45 0.45 0 1 0 -0.9 0Z M23.05 40.5 a0.45 0.45 0 1 0 0.9 0 a0.45 0.45 0 1 0 -0.9 0Z
M24.05 40.5 a0.45 0.45 0 1 0 0.9 0 a0.45 0.45 0 1 0 -0.9 0Z M27.05 40.5 a0.45 0.45 0 1 0 0.9 0 a0.45 0.45 0 1 0 -0.9 0Z M28.05 40.5 a0.45 0.45 0 1 0 0.9 0 a0.45 0.45 0 1 0 -0.9 0Z M31.05 40.5 a0.45 0.45 0 1 0 0.9 0 a0.45 0.45 0 1 0 -0.9 0Z M33.05 40.5 a0.45 0.45 0 1 0 0.9 0 a0.45 0.45 0 1 0 -0.9 0Z M34.05 40.5 a0.45 0.45 0 1 0 0.9 0 a0.45 0.45 0 1 0 -0.9 0Z M38.05 40.5 a0.45 0.45 0 1 0 0.9 0 a0.45 0.45 0 1 0 -0.9 0Z M39.05 40.5 a0.45 0.45 0 1 0 0.9 0 a0.45 0.45 0 1 0 -0.9 0Z M40.05 40.5 a0.45 0.45 0 1 0 0.9 0 a0.45 0.45 0 1 0 -0.9 0Z"/>
<path class="qr-finder-dark dark qrcode" d="M4 4 h1 v1 h-1Z M5 4 h1 v1 h-1Z M6 4 h1 v1 h-1Z M7 4 h1 v1 h-1Z M8 4 h1 v1 h-1Z M9 4 h1 v1 h-1Z M10 4 h1 v1 h-1Z M34 4 h1 v1 h-1Z M35 4 h1 v1 h-1Z M36 4 h1 v1 h-1Z M37 4 h1 v1 h-1Z M38 4 h1 v1 h-1Z M39 4 h1 v1 h-1Z M40 4 h1 v1 h-1Z M4 5 h1 v1 h-1Z M10 5 h1 v1 h-1Z M34 5 h1 v1 h-1Z M40 5 h1 v1 h-1Z M4 6 h1 v1 h-1Z M10 6 h1 v1 h-1Z M34 6 h1 v1 h-1Z M40 6 h1 v1 h-1Z M4 7 h1 v1 h-1Z M10 7 h1 v1 h-1Z M34 7 h1 v1 h-1Z M40 7 h1 v1 h-1Z M4 8 h1 v1 h-1Z M10 8 h1 v1 h-1Z M34 8 h1 v1 h-1Z M40 8 h1 v1 h-1Z M4 9 h1 v1 h-1Z M10 9 h1 v1 h-1Z M34 9 h1 v1 h-1Z M40 9 h1 v1 h-1Z M4 10 h1 v1 h-1Z M5 10 h1 v1 h-1Z M6 10 h1 v1 h-1Z M7 10 h1 v1 h-1Z M8 10 h1 v1 h-1Z M9 10 h1 v1 h-1Z M10 10 h1 v1 h-1Z M34 10 h1 v1 h-1Z M35 10 h1 v1 h-1Z M36 10 h1 v1 h-1Z M37 10 h1 v1 h-1Z M38 10 h1 v1 h-1Z M39 10 h1 v1 h-1Z M40 10 h1 v1 h-1Z M4 34 h1 v1 h-1Z M5 34 h1 v1 h-1Z M6 34 h1 v1 h-1Z M7 34 h1 v1 h-1Z M8 34 h1 v1 h-1Z M9 34 h1 v1 h-1Z M10 34 h1 v1 h-1Z M4 35 h1 v1 h-1Z M10 35 h1 v1 h-1Z M4 36 h1 v1 h-1Z M10 36 h1 v1 h-1Z M4 37 h1 v1 h-1Z M10 37 h1 v1 h-1Z M4 38 h1 v1 h-1Z M10 38 h1 v1 h-1Z M4 39 h1 v1 h-1Z M10 39 h1 v1 h-1Z M4 40 h1 v1 h-1Z M5 40 h1 v1 h-1Z M6 40 h1 v1 h-1Z M7 40 h1 v1 h-1Z M8 40 h1 v1 h-1Z M9 40 h1 v1 h-1Z M10 40 h1 v1 h-1Z"/>
<path class="qr-alignment-dark dark qrcode" d="M32 32 h1 v1 h-1Z M33 32 h1 v1 h-1Z M34 32 h1 v1 h-1Z M35 32 h1 v1 h-1Z M36 32 h1 v1 h-1Z M32 33 h1 v1 h-1Z M36 33 h1 v1 h-1Z M32 34 h1 v1 h-1Z M34 34 h1 v1 h-1Z M36 34 h1 v1 h-1Z M32 35 h1 v1 h-1Z M36 35 h1 v1 h-1Z M32 36 h1 v1 h-1Z M33 36 h1 v1 h-1Z M34 36 h1 v1 h-1Z M35 36 h1 v1 h-1Z M36 36 h1 v1 h-1Z"/>
<path class="qr-timing-dark dark qrcode" d="M12.05 10.5 a0.45 0.45 0 1 0 0.9 0 a0.45 0.45 0 1 0 -0.9 0Z M14.05 10.5 a0.45 0.45 0 1 0 0.9 0 a0.45 0.45 0 1 0 -0.9 0Z M16.05 10.5 a0.45 0.45 0 1 0 0.9 0 a0.45 0.45 0 1 0 -0.9 0Z M18.05 10.5 a0.45 0.45 0 1 0 0.9 0 a0.45 0.45 0 1 0 -0.9 0Z M20.05 10.5 a0.45 0.45 0 1 0 0.9 0 a0.45 0.45 0 1 0 -0.9 0Z M22.05 10.5 a0.45 0.45 0 1 0 0.9 0 a0.45 0.45 0 1 0 -0.9 0Z M24.05 10.5 a0.45 0.45 0 1 0 0.9 0 a0.45 0.45 0 1 0 -0.9 0Z M26.05 10.5 a0.45 0.45 0 1 0 0.9 0 a0.45 0.45 0 1 0 -0.9 0Z M28.05 10.5 a0.45 0.45 0 1 0 0.9 0 a0.45 0.45 0 1 0 -0.9 0Z M30.05 10.5 a0.45 0.45 0 1 0 0.9 0 a0.45 0.45 0 1 0 -0.9 0Z M32.05 10.5 a0.45 0.45 0 1 0 0.9 0 a0.45 0.45 0 1 0 -0.9 0Z M10.05 12.5 a0.45 0.45 0 1 0 0.9 0 a0.45 0.45 0 1 0 -0.9 0Z M10.05 14.5 a0.45 0.45 0 1 0 0.9 0 a0.45 0.45 0 1 0 -0.9 0Z M10.05 16.5 a0.45 0.45 0 1 0 0.9 0 a0.45 0.45 0 1 0 -0.9 0Z M10.05 18.5 a0.45 0.45 0 1 0 0.9 0 a0.45 0.45 0 1 0 -0.9 0Z M10.05 20.5 a0.45 0.45 0 1 0 0.9 0 a0.45 0.45 0 1 0 -0.9 0Z M10.05 22.5 a0.45 0.45 0 1 0 0.9 0 a0.45 0.45 0 1 0 -0.9 0Z M10.05 24.5 a0.45 0.45 0 1 0 0.9 0 a0.45 0.45 0 1 0 -0.9 0Z M10.05 26.5 a0.45 0.45 0 1 0 0.9 0 a0.45 0.45 0 1 0 -0.9 0Z M10.05 28.5 a0.45 0.45 0 1 0 0.9 0 a0.45 0.45 0 1 0 -0.9 0Z M10.05 30.5 a0.45 0.45 0 1 0 0.9 0 a0.45 0.45 0 1 0 -0.9 0Z M10.05 32.5 a0.45 0.45 0 1 0 0.9 0 a0.45 0.45 0 1 0 -0.9 0Z"/>
<path class="qr-format-dark dark qrcode" d="M12.05 5.5 a0.45 0.45 0 1 0 0.9 0 a0.45 0.45 0 1 0 -0.9 0Z M12.05 9.5 a0.45 0.45 0 1 0 0.9 0 a0.45 0.45 0 1 0 -0.9 0Z M12.05 11.5 a0.45 0.45 0 1 0 0.9 0 a0.45 0.45 0 1 0 -0.9 0Z M8.05 12.5 a0.45 0.45 0 1 0 0.9 0 a0.45 0.45 0 1 0 -0.9 0Z M9.05 12.5 a0.45 0.45 0 1 0 0.9 0 a0.45 0.45 0 1 0 -0.9 0Z M11.05 12.5 a0.45 0.45 0 1 0 0.9 0 a0.45 0.45 0 1 0 -0.9 0Z M34.05 12.5 a0.45 0.45 0 1 0 0.9 0 a0.45 0.45 0 1 0 -0.9 0Z M35.05 12.5 a0.45 0.45 0 1 0 0.9 0 a0.45 0.45 0 1 0 -0.9 0Z M39.05 12.5 a0.45 0.45 0 1 0 0.9 0 a0.45 0.45 0 1 0 -0.9 0Z M12.05 34.5 a0.45 0.45 0 1 0 0.9 0 a0.45 0.45 0 1 0 -0.9 0Z M12.05 35.5 a0.45 0.45 0 1 0 0.9 0 a0.45 0.45 0 1 0 -0.9 0Z M12.05 36.5 a0.45 0.45 0 1 0 0.9 0 a0.45 0.45 0 1 0 -0.9 0Z"/>
<path class="qr-finder-dot dark qrcode" d="M6 6 h1 v1 h-1Z M7 6 h1 v1 h-1Z M8 6 h1 v1 h-1Z M36 6 h1 v1 h-1Z M37 6 h1 v1 h-1Z M38 6 h1 v1 h-1Z M6 7 h1 v1 h-1Z M7 7 h1 v1 h-1Z M8 7 h1 v1 h-1Z M36 7 h1 v1 h-1Z M37 7 h1 v1 h-1Z M38 7 h1 v1 h-1Z M6 8 h1 v1 h-1Z M7 8 h1 v1 h-1Z M8 8 h1 v1 h-1Z M36 8 h1 v1 h-1Z M37 8 h1 v1 h-1Z M38 8 h1 v1 h-1Z M6 36 h1 v1 h-1Z M7 36 h1 v1 h-1Z M8 36 h1 v1 h-1Z M6 37 h1 v1 h-1Z M7 37 h1 v1 h-1Z M8 37 h1 v1 h-1Z M6 38 h1 v1 h-1Z M7 38 h1 v1 h-1Z M8 38 h1 v1 h-1Z"/>
<g transform="translate(18 18) scale(0.2)" class="logo">
	<svg role="img" viewBox="0 0 24 24" xmlns="http://www.w3.org/2000/svg"><title>Facebook</title><path d="M9.101 23.691v-7.98H6.627v-3.667h2.474v-1.58c0-4.085 1.848-5.978 5.858-5.978.401 0 .955.042 1.468.103a8.68 8.68 0 0 1 1.141.195v3.325a8.623 8.623 0 0 0-.653-.036 26.805 26.805 0 0 0-.733-.009c-.707 0-1.259.096-1.675.309a1.686 1.686 0 0 0-.679.622c-.258.42-.374.995-.374 1.752v1.297h3.919l-.386 2.103-.287 1.564h-3.246v8.245C19.396 23.238 24 18.179 24 12.044c0-6.627-5.373-12-12-12s-12 5.373-12 12c0 5.628 3.874 10.35 9.101 11.647Z"/></svg>
</g>
</svg>
